<mxfile host="app.diagrams.net" modified="2022-04-29T04:33:13.131Z" agent="5.0 (Windows NT 6.1; Win64; x64) AppleWebKit/537.36 (KHTML, like Gecko) Chrome/100.0.4896.127 Safari/537.36" etag="gff3o-XlJt1J_0RF47VZ" version="17.5.0" type="github">
  <diagram id="pUkiWswa6C3FF8Q4n-UF" name="Страница 1">
    <mxGraphModel dx="760" dy="423" grid="1" gridSize="10" guides="1" tooltips="1" connect="1" arrows="1" fold="1" page="1" pageScale="1" pageWidth="827" pageHeight="1169" math="0" shadow="0">
      <root>
        <mxCell id="0" />
        <mxCell id="1" parent="0" />
        <mxCell id="h_Nhs8Azzn4_3cl0NYb_-27" style="edgeStyle=orthogonalEdgeStyle;rounded=0;orthogonalLoop=1;jettySize=auto;html=1;entryX=0.5;entryY=0;entryDx=0;entryDy=0;" edge="1" parent="1" source="h_Nhs8Azzn4_3cl0NYb_-1" target="h_Nhs8Azzn4_3cl0NYb_-18">
          <mxGeometry relative="1" as="geometry" />
        </mxCell>
        <mxCell id="h_Nhs8Azzn4_3cl0NYb_-35" value="[Запись is not null]&lt;br&gt;УдалениеЗаписи()" style="edgeLabel;html=1;align=center;verticalAlign=middle;resizable=0;points=[];" vertex="1" connectable="0" parent="h_Nhs8Azzn4_3cl0NYb_-27">
          <mxGeometry x="-0.4562" y="-1" relative="1" as="geometry">
            <mxPoint x="4" y="-16" as="offset" />
          </mxGeometry>
        </mxCell>
        <mxCell id="h_Nhs8Azzn4_3cl0NYb_-1" value="&lt;font color=&quot;#ffffff&quot;&gt;Запись существует&lt;/font&gt;" style="ellipse;whiteSpace=wrap;html=1;aspect=fixed;fillColor=#000000;" vertex="1" parent="1">
          <mxGeometry x="40" y="40" width="70" height="70" as="geometry" />
        </mxCell>
        <mxCell id="h_Nhs8Azzn4_3cl0NYb_-18" value="УдалениеЗаписи" style="swimlane;fontStyle=1;childLayout=stackLayout;horizontal=1;startSize=28;horizontalStack=0;resizeParent=1;resizeParentMax=0;resizeLast=0;collapsible=0;marginBottom=0;fillColor=none;rounded=1;arcSize=50;glass=0;swimlaneLine=1;sketch=0;fixDash=0;autosize=1;movableLabel=0;enumerate=0;comic=0;moveCells=0;perimeter=rectanglePerimeter;expand=0;" vertex="1" parent="1">
          <mxGeometry x="250" y="220" width="280" height="70" as="geometry">
            <mxRectangle x="190" y="180" width="50" height="30" as="alternateBounds" />
          </mxGeometry>
        </mxCell>
        <mxCell id="h_Nhs8Azzn4_3cl0NYb_-19" value="do / проверка введённого пароля" style="text;strokeColor=none;fillColor=none;align=center;verticalAlign=middle;spacingLeft=4;spacingRight=4;overflow=visible;points=[[0,0.5],[1,0.5]];portConstraint=eastwest;rotatable=0;arcSize=12;imageWidth=24;rounded=1;glass=0;swimlaneLine=1;sketch=0;fixDash=0;autosize=0;movableLabel=0;enumerate=0;comic=0;moveCells=0;part=0;expand=1;dropTarget=0;container=0;allowArrows=1;connectable=1;resizable=1;pointerEvents=1;" vertex="1" parent="h_Nhs8Azzn4_3cl0NYb_-18">
          <mxGeometry y="28" width="280" height="42" as="geometry">
            <mxRectangle y="30" width="140" height="20" as="alternateBounds" />
          </mxGeometry>
        </mxCell>
        <mxCell id="h_Nhs8Azzn4_3cl0NYb_-28" style="edgeStyle=orthogonalEdgeStyle;rounded=0;orthogonalLoop=1;jettySize=auto;html=1;" edge="1" parent="1" source="h_Nhs8Azzn4_3cl0NYb_-19" target="h_Nhs8Azzn4_3cl0NYb_-1">
          <mxGeometry relative="1" as="geometry">
            <mxPoint x="125.0344827586207" y="330" as="targetPoint" />
          </mxGeometry>
        </mxCell>
        <mxCell id="h_Nhs8Azzn4_3cl0NYb_-31" value="ВыводРезультата()" style="edgeLabel;html=1;align=center;verticalAlign=middle;resizable=0;points=[];" vertex="1" connectable="0" parent="h_Nhs8Azzn4_3cl0NYb_-28">
          <mxGeometry x="0.242" relative="1" as="geometry">
            <mxPoint x="90" y="24" as="offset" />
          </mxGeometry>
        </mxCell>
        <mxCell id="h_Nhs8Azzn4_3cl0NYb_-29" style="edgeStyle=orthogonalEdgeStyle;rounded=0;orthogonalLoop=1;jettySize=auto;html=1;" edge="1" parent="1" source="h_Nhs8Azzn4_3cl0NYb_-19" target="h_Nhs8Azzn4_3cl0NYb_-33">
          <mxGeometry relative="1" as="geometry">
            <mxPoint x="650" y="330" as="targetPoint" />
          </mxGeometry>
        </mxCell>
        <mxCell id="h_Nhs8Azzn4_3cl0NYb_-33" value="&lt;font color=&quot;#fafafa&quot;&gt;Запись удалена&lt;/font&gt;" style="ellipse;whiteSpace=wrap;html=1;aspect=fixed;fillColor=#000000;" vertex="1" parent="1">
          <mxGeometry x="400" y="40" width="70" height="70" as="geometry" />
        </mxCell>
      </root>
    </mxGraphModel>
  </diagram>
</mxfile>
